<svg xmlns="http://www.w3.org/2000/svg" version="1.1" xmlns:xlink="http://www.w3.org/1999/xlink" xmlns:svgjs="http://svgjs.dev/svgjs" viewBox="0 0 26.534052396715353 10.508902774731883"><g transform="matrix(0.7729512522251256,0,0,0.7729512522251256,11.824298651028291,3.8869866787683405)"><g transform="matrix(1,0,0,1,0,0)" clip-path="url(#SvgjsClipPath57691)"><g clip-path="url(#SvgjsClipPath57689aa3a556f-28e9-4dac-a595-38a441d66809)"><path d=" M -3.6770479350551817 5.366298587897257 C -3.695722619178235 5.296986779517457 -3.8430850304313102 5.172728304390985 -3.9554922637104637 5.061877294788751 C -4.161033498577671 4.859448507275392 -4.168694907448667 4.402756712855821 -4.168694907448667 4.402756712855821 L -6.084047125197815 4.402756712855821 C -6.084047125197815 4.402756712855821 -6.056035099013232 4.8631595021972736 -6.2615763338804395 5.06570799922425 C -6.376258047918169 5.178713780071446 -6.505424613102626 5.286811470860661 -6.505424613102626 5.374319125309077 L -6.505424613102626 5.3761147680132115 C -6.505424613102626 5.392036133323254 -6.537387053236317 5.410231979391876 -6.520627721331014 5.422322640266417 C -6.483278353084904 5.455242756508975 -6.423184177253026 5.480142335339719 -6.250563058628382 5.480142335339719 L -3.9711742099932863 5.480142335339719 C -3.8937543072868674 5.483306500638028 -3.8165274339509434 5.470258665649913 -3.7444443912172325 5.441835290984736 C -3.6875823722528045 5.426273054215521 -3.669625945211405 5.4004157992759065 -3.6768085160279664 5.370009582819138 C -3.675786252484359 5.365408132108891 -3.675224837106996 5.36071630359808 -3.675132582837432 5.356003569726845 Z" fill="#fffcf7" transform="matrix(1,0,0,1,0,0)" fill-rule="nonzero"></path></g><g clip-path="url(#SvgjsClipPath57689aa3a556f-28e9-4dac-a595-38a441d66809)"><path d=" M -6.577010902241001 5.3779104107173605 L -6.577010902241001 5.3779104107173605 C -6.577010902241001 5.3770724441220885 -6.577010902241001 5.376593606067651 -6.577010902241001 5.375755639472391 Z" fill="#fffcf7" transform="matrix(1,0,0,1,0,0)" fill-rule="nonzero"></path></g><g clip-path="url(#SvgjsClipPath57689aa3a556f-28e9-4dac-a595-38a441d66809)"><path d=" M -0.749551779739221 -1.941847508438221 L -9.549278415646851 -1.941847508438221 C -9.718582052484683 -1.9148234399614548 -9.846472186033223 -1.7739502940223328 -9.857051575136417 -1.6028301658966253 L -9.857051575136417 4.080618411733138 C -9.857051575136417 4.1688443232632135 -9.801745779848911 4.208228753240672 -9.7283638480064 4.251084759112809 C -9.67373193734953 4.281419398631966 -9.61054337207642 4.2926669632505785 -9.548799577592414 4.283047199246495 L -0.7490729416847834 4.283047199246495 C -0.6789408230162621 4.292870398979282 -0.6074786971915476 4.281182668120097 -0.544130254385621 4.2495285354358945 C -0.4782900219004933 4.2066725295637575 -0.3995211619455574 4.167886647154329 -0.3995211619455574 4.080618411733138 L -0.3995211619455574 -1.6028301658966253 C -0.42881212146317615 -1.7805866287807357 -0.5709500208084766 -1.9182523370385682 -0.7495517797392282 -1.941847508438221 Z M -0.7591285408279678 3.0859520631532917 L -9.37821352069913 3.0859520631532917 L -9.37821352069913 -1.582718967610257 L -0.7591285408279678 -1.582718967610257 Z" fill="#fffcf7" transform="matrix(1,0,0,1,0,0)" fill-rule="nonzero"></path></g></g><g><path d=" M 0.0465 0.9299999999999999 L 0.1875 0.9299999999999999 L 0.1875 0.28049999999999997 L 0.066 0.28049999999999997 L 0.066 0.020999999999999908 L 0.6615 0.020999999999999908 Q 0.8085 0.020999999999999908 0.909 0.04499999999999993 Q 1.0095 0.06899999999999995 1.06875 0.13649999999999984 Q 1.1280000000000001 0.20399999999999996 1.1280000000000001 0.3284999999999999 Q 1.1280000000000001 0.4155 1.07775 0.48 Q 1.0275 0.5445 0.9495 0.573 Q 1.0515 0.6164999999999999 1.10025 0.6862499999999999 Q 1.149 0.756 1.149 0.8775 Q 1.149 1.026 1.03275 1.107 Q 0.9165 1.188 0.7035 1.188 L 0.0465 1.188 L 0.0465 0.9299999999999999 M 0.603 0.4919999999999999 Q 0.687 0.4919999999999999 0.72675 0.4687499999999999 Q 0.7665000000000001 0.4454999999999999 0.7665000000000001 0.3809999999999999 Q 0.7665000000000001 0.33599999999999997 0.73875 0.3082499999999999 Q 0.711 0.28049999999999997 0.666 0.28049999999999997 L 0.5625 0.28049999999999997 L 0.5625 0.4919999999999999 L 0.603 0.4919999999999999 M 0.5895 0.9299999999999999 Q 0.678 0.9299999999999999 0.726 0.9052499999999999 Q 0.774 0.8805 0.774 0.8025 Q 0.774 0.6824999999999999 0.627 0.6824999999999999 Q 0.594 0.6824999999999999 0.5625 0.6839999999999999 L 0.5625 0.9299999999999999 L 0.5895 0.9299999999999999 M 1.3035322265625002 1.188 L 1.3035322265625002 0.9299999999999999 L 1.4445322265625002 0.9299999999999999 L 1.4445322265625002 0.28049999999999997 L 1.3035322265625002 0.28049999999999997 L 1.3035322265625002 0.022499999999999964 L 2.2875322265625 0.022499999999999964 L 2.2875322265625 0.4859999999999999 L 2.1000322265625 0.4859999999999999 L 2.0295322265625 0.28049999999999997 L 1.8195322265625002 0.28049999999999997 L 1.8195322265625002 0.471 L 2.0070322265625 0.471 L 2.0070322265625 0.6629999999999999 L 1.8195322265625002 0.6629999999999999 L 1.8195322265625002 0.9299999999999999 L 2.0295322265625 0.9299999999999999 L 2.1000322265625 0.6915 L 2.2875322265625 0.6915 L 2.2875322265625 1.188 L 1.3035322265625002 1.188 M 2.7090439453125 1.188 L 2.4450439453125 0.28049999999999997 L 2.3235439453125 0.28049999999999997 L 2.3235439453125 0.022499999999999964 L 2.9565439453125 0.022499999999999964 L 2.9565439453125 0.28049999999999997 L 2.8725439453125 0.28049999999999997 L 3.0195439453125 0.8099999999999999 L 3.1485439453125 0.28049999999999997 L 3.0525439453125003 0.28049999999999997 L 3.0525439453125003 0.022499999999999964 L 3.5610439453125 0.022499999999999964 L 3.5610439453125 0.28049999999999997 L 3.4290439453125003 0.28049999999999997 L 3.1380439453125 1.188 L 2.7090439453125 1.188 M 3.667515380859375 1.188 L 3.667515380859375 0.9299999999999999 L 3.808515380859375 0.9299999999999999 L 3.808515380859375 0.28049999999999997 L 3.667515380859375 0.28049999999999997 L 3.667515380859375 0.022499999999999964 L 4.651515380859375 0.022499999999999964 L 4.651515380859375 0.4859999999999999 L 4.464015380859375 0.4859999999999999 L 4.393515380859375 0.28049999999999997 L 4.183515380859375 0.28049999999999997 L 4.183515380859375 0.471 L 4.371015380859375 0.471 L 4.371015380859375 0.6629999999999999 L 4.183515380859375 0.6629999999999999 L 4.183515380859375 0.9299999999999999 L 4.393515380859375 0.9299999999999999 L 4.464015380859375 0.6915 L 4.651515380859375 0.6915 L 4.651515380859375 1.188 L 3.667515380859375 1.188 M 4.753527099609375 0.9299999999999999 L 4.870527099609375 0.9299999999999999 L 4.870527099609375 0.28049999999999997 L 4.753527099609375 0.28049999999999997 L 4.753527099609375 0.022499999999999964 L 5.502027099609375 0.022499999999999964 Q 5.683527099609375 0.022499999999999964 5.769027099609375 0.09599999999999986 Q 5.854527099609375 0.16949999999999998 5.854527099609375 0.33899999999999997 Q 5.854527099609375 0.45299999999999996 5.790777099609375 0.5145 Q 5.727027099609375 0.576 5.6100270996093755 0.597 Q 5.715027099609375 0.6134999999999999 5.761527099609375 0.67575 Q 5.808027099609375 0.738 5.808027099609375 0.831 L 5.808027099609375 0.9255 L 5.971527099609375 0.9255 L 5.971527099609375 1.188 L 5.736027099609375 1.188 Q 5.622027099609375 1.188 5.572527099609375 1.173 Q 5.523027099609375 1.158 5.496777099609375 1.0905 Q 5.470527099609375 1.023 5.470527099609375 0.8654999999999999 Q 5.470527099609375 0.7754999999999999 5.441277099609375 0.732 Q 5.412027099609375 0.6884999999999999 5.334027099609375 0.6884999999999999 L 5.245527099609375 0.6884999999999999 L 5.245527099609375 0.9299999999999999 L 5.362527099609375 0.9299999999999999 L 5.362527099609375 1.188 L 4.753527099609375 1.188 L 4.753527099609375 0.9299999999999999 M 5.346027099609375 0.5219999999999999 Q 5.425527099609375 0.5219999999999999 5.464527099609375 0.49349999999999994 Q 5.503527099609375 0.46499999999999997 5.503527099609375 0.3929999999999999 Q 5.503527099609375 0.3404999999999999 5.463777099609375 0.3104999999999999 Q 5.424027099609375 0.28049999999999997 5.361027099609375 0.28049999999999997 L 5.245527099609375 0.28049999999999997 L 5.245527099609375 0.5219999999999999 L 5.346027099609375 0.5219999999999999 M 6.057054931640625 1.188 L 6.057054931640625 0.9299999999999999 L 6.174054931640625 0.9299999999999999 L 6.174054931640625 0.28049999999999997 L 6.057054931640625 0.28049999999999997 L 6.057054931640625 0.022499999999999964 L 6.666054931640625 0.022499999999999964 L 6.666054931640625 0.28049999999999997 L 6.549054931640625 0.28049999999999997 L 6.549054931640625 0.9299999999999999 L 6.666054931640625 0.9299999999999999 L 6.666054931640625 1.188 L 6.057054931640625 1.188 M 6.762076171875 0.9299999999999999 L 6.879076171875 0.9299999999999999 L 6.879076171875 0.28049999999999997 L 6.762076171875 0.28049999999999997 L 6.762076171875 0.022499999999999964 L 7.302076171875 0.022499999999999964 Q 7.620076171875 0.022499999999999964 7.788826171875 0.16949999999999998 Q 7.957576171875 0.3164999999999999 7.957576171875 0.6044999999999999 Q 7.957576171875 0.885 7.789576171875 1.0365 Q 7.621576171875 1.188 7.300576171875 1.188 L 6.762076171875 1.188 L 6.762076171875 0.9299999999999999 M 7.300576171875 0.9299999999999999 Q 7.423576171875 0.9299999999999999 7.479826171875 0.83775 Q 7.536076171875 0.7454999999999999 7.536076171875 0.6044999999999999 Q 7.536076171875 0.4604999999999999 7.480576171875 0.37049999999999994 Q 7.425076171875 0.28049999999999997 7.300576171875 0.28049999999999997 L 7.254076171875 0.28049999999999997 L 7.254076171875 0.9299999999999999 L 7.300576171875 0.9299999999999999 M 8.40829833984375 1.143 Q 8.26054833984375 1.077 8.17204833984375 0.9375 Q 8.08354833984375 0.7979999999999999 8.08354833984375 0.5864999999999999 Q 8.08354833984375 0.4185 8.15329833984375 0.2849999999999999 Q 8.22304833984375 0.15149999999999997 8.35579833984375 0.07574999999999998 Q 8.48854833984375 0 8.66854833984375 0 Q 8.74504833984375 0 8.81704833984375 0.025499999999999856 Q 8.88904833984375 0.050999999999999934 8.93104833984375 0.10049999999999981 L 8.95504833984375 0.022499999999999964 L 9.20854833984375 0.022499999999999964 L 9.20854833984375 0.45299999999999996 L 8.98204833984375 0.45299999999999996 Q 8.95954833984375 0.3599999999999999 8.89504833984375 0.31275 Q 8.83054833984375 0.26549999999999996 8.76004833984375 0.26549999999999996 Q 8.64304833984375 0.26549999999999996 8.57479833984375 0.351 Q 8.50654833984375 0.4364999999999999 8.50654833984375 0.5864999999999999 Q 8.50654833984375 0.738 8.57404833984375 0.8242499999999999 Q 8.64154833984375 0.9104999999999999 8.76454833984375 0.9104999999999999 Q 8.79604833984375 0.9104999999999999 8.82754833984375 0.9044999999999999 Q 8.85904833984375 0.8985 8.87854833984375 0.8917499999999999 Q 8.89804833984375 0.885 8.90404833984375 0.8835 L 8.90404833984375 0.7799999999999999 L 8.763048339843749 0.7799999999999999 L 8.763048339843749 0.5624999999999999 L 9.23254833984375 0.5624999999999999 L 9.23254833984375 1.0859999999999999 Q 9.12004833984375 1.146 8.99104833984375 1.1775 Q 8.86204833984375 1.2089999999999999 8.73454833984375 1.2089999999999999 Q 8.55604833984375 1.2089999999999999 8.40829833984375 1.143 M 9.369053466796874 1.188 L 9.369053466796874 0.9299999999999999 L 9.510053466796874 0.9299999999999999 L 9.510053466796874 0.28049999999999997 L 9.369053466796874 0.28049999999999997 L 9.369053466796874 0.022499999999999964 L 10.353053466796876 0.022499999999999964 L 10.353053466796876 0.4859999999999999 L 10.165553466796876 0.4859999999999999 L 10.095053466796875 0.28049999999999997 L 9.885053466796876 0.28049999999999997 L 9.885053466796876 0.471 L 10.072553466796876 0.471 L 10.072553466796876 0.6629999999999999 L 9.885053466796876 0.6629999999999999 L 9.885053466796876 0.9299999999999999 L 10.095053466796875 0.9299999999999999 L 10.165553466796876 0.6915 L 10.353053466796876 0.6915 L 10.353053466796876 1.188 L 9.369053466796874 1.188 M 0.0945 2.4389999999999996 L 0.2115 2.4389999999999996 L 0.2115 1.7894999999999996 L 0.0945 1.7894999999999996 L 0.0945 1.5314999999999996 L 0.843 1.5314999999999996 Q 1.0245 1.5314999999999996 1.11 1.6049999999999995 Q 1.1955 1.6784999999999997 1.1955 1.8479999999999996 Q 1.1955 1.9619999999999997 1.13175 2.0234999999999994 Q 1.068 2.0849999999999995 0.9510000000000001 2.106 Q 1.056 2.1224999999999996 1.1025 2.1847499999999997 Q 1.149 2.2469999999999994 1.149 2.34 L 1.149 2.4344999999999994 L 1.3125 2.4344999999999994 L 1.3125 2.6969999999999996 L 1.077 2.6969999999999996 Q 0.963 2.6969999999999996 0.9135 2.6819999999999995 Q 0.864 2.667 0.83775 2.5994999999999995 Q 0.8115 2.5319999999999996 0.8115 2.3744999999999994 Q 0.8115 2.2844999999999995 0.78225 2.2409999999999997 Q 0.753 2.1975 0.675 2.1975 L 0.5865 2.1975 L 0.5865 2.4389999999999996 L 0.7035 2.4389999999999996 L 0.7035 2.6969999999999996 L 0.0945 2.6969999999999996 L 0.0945 2.4389999999999996 M 0.687 2.0309999999999997 Q 0.7665000000000001 2.0309999999999997 0.8055 2.0024999999999995 Q 0.8445 1.9739999999999998 0.8445 1.9019999999999997 Q 0.8445 1.8494999999999995 0.80475 1.8194999999999997 Q 0.765 1.7894999999999996 0.7020000000000001 1.7894999999999996 L 0.5865 1.7894999999999996 L 0.5865 2.0309999999999997 L 0.687 2.0309999999999997 M 1.37402783203125 2.6969999999999996 L 1.37402783203125 2.4389999999999996 L 1.51502783203125 2.4389999999999996 L 1.51502783203125 1.7894999999999996 L 1.37402783203125 1.7894999999999996 L 1.37402783203125 1.5314999999999996 L 2.35802783203125 1.5314999999999996 L 2.35802783203125 1.9949999999999997 L 2.17052783203125 1.9949999999999997 L 2.10002783203125 1.7894999999999996 L 1.89002783203125 1.7894999999999996 L 1.89002783203125 1.9799999999999995 L 2.07752783203125 1.9799999999999995 L 2.07752783203125 2.1719999999999997 L 1.89002783203125 2.1719999999999997 L 1.89002783203125 2.4389999999999996 L 2.10002783203125 2.4389999999999996 L 2.17052783203125 2.2004999999999995 L 2.35802783203125 2.2004999999999995 L 2.35802783203125 2.6969999999999996 L 1.37402783203125 2.6969999999999996 M 2.42553955078125 2.4344999999999994 L 2.53953955078125 2.4344999999999994 L 2.53953955078125 1.7894999999999996 L 2.42853955078125 1.7894999999999996 L 2.42853955078125 1.5299999999999996 L 3.0525395507812503 1.5299999999999996 Q 3.26703955078125 1.5299999999999996 3.4057895507812503 1.6027499999999997 Q 3.5445395507812503 1.6754999999999995 3.5445395507812503 1.8674999999999997 Q 3.5445395507812503 2.0909999999999997 3.42303955078125 2.1892499999999995 Q 3.30153955078125 2.2874999999999996 3.05853955078125 2.2874999999999996 Q 2.99853955078125 2.2874999999999996 2.94903955078125 2.28 L 2.94903955078125 2.4344999999999994 L 3.05553955078125 2.4344999999999994 L 3.05553955078125 2.6969999999999996 L 2.42553955078125 2.6969999999999996 L 2.42553955078125 2.4344999999999994 M 2.98053955078125 2.0489999999999995 Q 3.14703955078125 2.0489999999999995 3.14703955078125 1.9019999999999997 Q 3.14703955078125 1.8479999999999996 3.11028955078125 1.8187499999999996 Q 3.07353955078125 1.7894999999999996 3.01203955078125 1.7894999999999996 L 2.95053955078125 1.7894999999999996 L 2.95053955078125 2.0489999999999995 L 2.98053955078125 2.0489999999999995 M 3.621015380859375 2.6969999999999996 L 3.621015380859375 2.4389999999999996 L 3.736515380859375 2.4389999999999996 L 3.937515380859375 1.7894999999999996 L 3.784515380859375 1.7894999999999996 L 3.784515380859375 1.5314999999999996 L 4.510515380859375 1.5314999999999996 L 4.770015380859375 2.4389999999999996 L 4.885515380859375 2.4389999999999996 L 4.885515380859375 2.6969999999999996 L 4.230015380859375 2.6969999999999996 L 4.230015380859375 2.4389999999999996 L 4.324515380859375 2.4389999999999996 L 4.293015380859375 2.3145 L 4.029015380859375 2.3145 L 3.996015380859375 2.4389999999999996 L 4.135515380859375 2.4389999999999996 L 4.135515380859375 2.6969999999999996 L 3.621015380859375 2.6969999999999996 M 4.066515380859375 2.1374999999999997 L 4.258515380859375 2.1374999999999997 L 4.1730153808593755 1.7804999999999995 L 4.066515380859375 2.1374999999999997 M 4.980028564453125 2.6969999999999996 L 4.980028564453125 2.4389999999999996 L 5.097028564453125 2.4389999999999996 L 5.097028564453125 1.7894999999999996 L 4.980028564453125 1.7894999999999996 L 4.980028564453125 1.5314999999999996 L 5.589028564453125 1.5314999999999996 L 5.589028564453125 1.7894999999999996 L 5.472028564453125 1.7894999999999996 L 5.472028564453125 2.4389999999999996 L 5.589028564453125 2.4389999999999996 L 5.589028564453125 2.6969999999999996 L 4.980028564453125 2.6969999999999996 M 5.7330498046875 2.4389999999999996 L 5.8500498046875 2.4389999999999996 L 5.8500498046875 1.7894999999999996 L 5.7330498046875 1.7894999999999996 L 5.7330498046875 1.5314999999999996 L 6.4815498046875 1.5314999999999996 Q 6.6630498046875 1.5314999999999996 6.7485498046875 1.6049999999999995 Q 6.8340498046875 1.6784999999999997 6.8340498046875 1.8479999999999996 Q 6.8340498046875 1.9619999999999997 6.7702998046875 2.0234999999999994 Q 6.7065498046875 2.0849999999999995 6.5895498046875005 2.106 Q 6.6945498046875 2.1224999999999996 6.7410498046875 2.1847499999999997 Q 6.7875498046875 2.2469999999999994 6.7875498046875 2.34 L 6.7875498046875 2.4344999999999994 L 6.9510498046875 2.4344999999999994 L 6.9510498046875 2.6969999999999996 L 6.7155498046875 2.6969999999999996 Q 6.6015498046875 2.6969999999999996 6.5520498046875 2.6819999999999995 Q 6.5025498046875 2.667 6.4762998046875 2.5994999999999995 Q 6.4500498046875 2.5319999999999996 6.4500498046875 2.3744999999999994 Q 6.4500498046875 2.2844999999999995 6.4207998046875 2.2409999999999997 Q 6.3915498046875 2.1975 6.3135498046875 2.1975 L 6.2250498046875 2.1975 L 6.2250498046875 2.4389999999999996 L 6.3420498046875 2.4389999999999996 L 6.3420498046875 2.6969999999999996 L 5.7330498046875 2.6969999999999996 L 5.7330498046875 2.4389999999999996 M 6.3255498046875 2.0309999999999997 Q 6.4050498046875 2.0309999999999997 6.4440498046875 2.0024999999999995 Q 6.4830498046875 1.9739999999999998 6.4830498046875 1.9019999999999997 Q 6.4830498046875 1.8494999999999995 6.4432998046875 1.8194999999999997 Q 6.4035498046875 1.7894999999999996 6.3405498046875 1.7894999999999996 L 6.2250498046875 1.7894999999999996 L 6.2250498046875 2.0309999999999997 L 6.3255498046875 2.0309999999999997 M 7.622318115234375 2.6519999999999997 Q 7.474568115234375 2.5859999999999994 7.386068115234375 2.4464999999999995 Q 7.297568115234375 2.3069999999999995 7.297568115234375 2.0954999999999995 Q 7.297568115234375 1.9274999999999998 7.367318115234375 1.7939999999999996 Q 7.437068115234375 1.6604999999999996 7.569818115234375 1.5847499999999997 Q 7.702568115234375 1.5089999999999997 7.882568115234375 1.5089999999999997 Q 7.959068115234375 1.5089999999999997 8.031068115234374 1.5344999999999995 Q 8.103068115234375 1.5599999999999996 8.145068115234375 1.6094999999999995 L 8.169068115234374 1.5314999999999996 L 8.422568115234375 1.5314999999999996 L 8.422568115234375 1.9619999999999997 L 8.196068115234375 1.9619999999999997 Q 8.173568115234374 1.8689999999999996 8.109068115234376 1.8217499999999998 Q 8.044568115234375 1.7744999999999997 7.974068115234375 1.7744999999999997 Q 7.857068115234375 1.7744999999999997 7.788818115234375 1.8599999999999997 Q 7.720568115234375 1.9454999999999996 7.720568115234375 2.0954999999999995 Q 7.720568115234375 2.2469999999999994 7.788068115234375 2.3332499999999996 Q 7.855568115234375 2.4194999999999998 7.978568115234375 2.4194999999999998 Q 8.010068115234375 2.4194999999999998 8.041568115234375 2.4134999999999995 Q 8.073068115234374 2.4074999999999998 8.092568115234375 2.4007499999999995 Q 8.112068115234376 2.3939999999999997 8.118068115234376 2.3924999999999996 L 8.118068115234376 2.2889999999999997 L 7.977068115234375 2.2889999999999997 L 7.977068115234375 2.0714999999999995 L 8.446568115234374 2.0714999999999995 L 8.446568115234374 2.5949999999999998 Q 8.334068115234375 2.655 8.205068115234376 2.6864999999999997 Q 8.076068115234374 2.7179999999999995 7.948568115234375 2.7179999999999995 Q 7.770068115234375 2.7179999999999995 7.622318115234375 2.6519999999999997 M 8.6070732421875 2.4389999999999996 L 8.7240732421875 2.4389999999999996 L 8.7240732421875 1.7894999999999996 L 8.6070732421875 1.7894999999999996 L 8.6070732421875 1.5314999999999996 L 9.3555732421875 1.5314999999999996 Q 9.5370732421875 1.5314999999999996 9.6225732421875 1.6049999999999995 Q 9.7080732421875 1.6784999999999997 9.7080732421875 1.8479999999999996 Q 9.7080732421875 1.9619999999999997 9.6443232421875 2.0234999999999994 Q 9.5805732421875 2.0849999999999995 9.4635732421875 2.106 Q 9.568573242187501 2.1224999999999996 9.6150732421875 2.1847499999999997 Q 9.661573242187501 2.2469999999999994 9.661573242187501 2.34 L 9.661573242187501 2.4344999999999994 L 9.8250732421875 2.4344999999999994 L 9.8250732421875 2.6969999999999996 L 9.5895732421875 2.6969999999999996 Q 9.4755732421875 2.6969999999999996 9.426073242187499 2.6819999999999995 Q 9.3765732421875 2.667 9.3503232421875 2.5994999999999995 Q 9.3240732421875 2.5319999999999996 9.3240732421875 2.3744999999999994 Q 9.3240732421875 2.2844999999999995 9.2948232421875 2.2409999999999997 Q 9.2655732421875 2.1975 9.1875732421875 2.1975 L 9.099073242187501 2.1975 L 9.099073242187501 2.4389999999999996 L 9.2160732421875 2.4389999999999996 L 9.2160732421875 2.6969999999999996 L 8.6070732421875 2.6969999999999996 L 8.6070732421875 2.4389999999999996 M 9.1995732421875 2.0309999999999997 Q 9.2790732421875 2.0309999999999997 9.3180732421875 2.0024999999999995 Q 9.3570732421875 1.9739999999999998 9.3570732421875 1.9019999999999997 Q 9.3570732421875 1.8494999999999995 9.3173232421875 1.8194999999999997 Q 9.2775732421875 1.7894999999999996 9.2145732421875 1.7894999999999996 L 9.099073242187501 1.7894999999999996 L 9.099073242187501 2.0309999999999997 L 9.1995732421875 2.0309999999999997 M 10.13335107421875 2.6399999999999997 Q 10.00060107421875 2.5619999999999994 9.93160107421875 2.4247499999999995 Q 9.86260107421875 2.2874999999999996 9.86260107421875 2.1119999999999997 Q 9.86260107421875 1.9304999999999994 9.93160107421875 1.7939999999999996 Q 10.00060107421875 1.6574999999999995 10.13260107421875 1.5832499999999996 Q 10.26460107421875 1.5089999999999997 10.44910107421875 1.5089999999999997 Q 10.63360107421875 1.5089999999999997 10.76560107421875 1.5832499999999996 Q 10.89760107421875 1.6574999999999995 10.966601074218751 1.7939999999999996 Q 11.03560107421875 1.9304999999999994 11.03560107421875 2.1119999999999997 Q 11.03560107421875 2.2874999999999996 10.966601074218751 2.4247499999999995 Q 10.89760107421875 2.5619999999999994 10.76485107421875 2.6399999999999997 Q 10.63210107421875 2.7179999999999995 10.44910107421875 2.7179999999999995 Q 10.26610107421875 2.7179999999999995 10.13335107421875 2.6399999999999997 M 10.57060107421875 2.3625 Q 10.61260107421875 2.2664999999999997 10.61260107421875 2.106 Q 10.61260107421875 1.9499999999999997 10.57210107421875 1.8592499999999996 Q 10.53160107421875 1.7684999999999995 10.44910107421875 1.7684999999999995 Q 10.36660107421875 1.7684999999999995 10.32610107421875 1.8592499999999996 Q 10.28560107421875 1.9499999999999997 10.28560107421875 2.106 Q 10.28560107421875 2.2664999999999997 10.32760107421875 2.3625 Q 10.36960107421875 2.4584999999999995 10.44910107421875 2.4584999999999995 Q 10.52860107421875 2.4584999999999995 10.57060107421875 2.3625 M 11.38287890625 2.5814999999999997 Q 11.26812890625 2.4449999999999994 11.26812890625 2.1809999999999996 L 11.26812890625 1.7894999999999996 L 11.14962890625 1.7894999999999996 L 11.14962890625 1.5314999999999996 L 11.78562890625 1.5314999999999996 L 11.78562890625 1.7894999999999996 L 11.67762890625 1.7894999999999996 L 11.67762890625 2.28 Q 11.67762890625 2.3519999999999994 11.71287890625 2.3977499999999994 Q 11.74812890625 2.4435 11.82312890625 2.4435 Q 11.88612890625 2.4435 11.92287890625 2.4059999999999997 Q 11.95962890625 2.3684999999999996 11.95962890625 2.3039999999999994 L 11.95962890625 1.7894999999999996 L 11.83962890625 1.7894999999999996 L 11.83962890625 1.5314999999999996 L 12.31812890625 1.5314999999999996 L 12.31812890625 1.7894999999999996 L 12.20562890625 1.7894999999999996 L 12.20562890625 2.2934999999999994 Q 12.20562890625 2.5035 12.08262890625 2.6107499999999995 Q 11.95962890625 2.7179999999999995 11.75862890625 2.7179999999999995 Q 11.49762890625 2.7179999999999995 11.38287890625 2.5814999999999997 M 12.418612060546875 2.4344999999999994 L 12.532612060546874 2.4344999999999994 L 12.532612060546874 1.7894999999999996 L 12.421612060546876 1.7894999999999996 L 12.421612060546876 1.5299999999999996 L 13.045612060546874 1.5299999999999996 Q 13.260112060546875 1.5299999999999996 13.398862060546875 1.6027499999999997 Q 13.537612060546875 1.6754999999999995 13.537612060546875 1.8674999999999997 Q 13.537612060546875 2.0909999999999997 13.416112060546876 2.1892499999999995 Q 13.294612060546875 2.2874999999999996 13.051612060546875 2.2874999999999996 Q 12.991612060546874 2.2874999999999996 12.942112060546876 2.28 L 12.942112060546876 2.4344999999999994 L 13.048612060546875 2.4344999999999994 L 13.048612060546875 2.6969999999999996 L 12.418612060546875 2.6969999999999996 L 12.418612060546875 2.4344999999999994 M 12.973612060546875 2.0489999999999995 Q 13.140112060546874 2.0489999999999995 13.140112060546874 1.9019999999999997 Q 13.140112060546874 1.8479999999999996 13.103362060546875 1.8187499999999996 Q 13.066612060546875 1.7894999999999996 13.005112060546875 1.7894999999999996 L 12.943612060546876 1.7894999999999996 L 12.943612060546876 2.0489999999999995 L 12.973612060546875 2.0489999999999995" fill="#fffcf7" fill-rule="nonzero"></path></g><g><path d=" M 0.02778433532882457 3.21577862073162 Q 0.018795285663616622 3.21577862073162 0.014028365386612405 3.2097859209548147 Q 0.009261445109608189 3.2037932211780094 0.009261445109608189 3.193986985179601 L 0.013347376775611803 3.092655879862711 Q 0.013619772220012044 3.0820324575311018 0.017160912997215175 3.076720746365297 Q 0.020702053774418305 3.0714090351994923 0.029963498884026496 3.0714090351994923 L 0.42275772970917386 3.0714090351994923 Q 0.43147438392998155 3.0714090351994923 0.4352879201515849 3.076856944087497 Q 0.4391014563731883 3.082304852975502 0.43937385181758853 3.092655879862711 L 0.44345978348359216 3.193986985179601 Q 0.44345978348359216 3.2037932211780094 0.4386928632065879 3.2097859209548147 Q 0.4339259429295837 3.21577862073162 0.4249368932643758 3.21577862073162 Q 0.4154030527103673 3.21577862073162 0.4095465506557622 3.2116926890656163 Q 0.403690048601157 3.2076067573996125 0.402600466823556 3.197528125956804 L 0.39415620804714857 3.1193506334139345 L 0.2552345314030257 3.1193506334139345 L 0.2552345314030257 3.490353228687063 L 0.32741932416908953 3.490353228687063 Q 0.33777035105629866 3.490353228687063 0.34226487588890264 3.4978441034080694 Q 0.3467594007215066 3.505334978129076 0.3467594007215066 3.5154136095718846 Q 0.3467594007215066 3.5244026592370927 0.34158388727790207 3.531348743069299 Q 0.3364083738342975 3.538294826901505 0.32687453328028904 3.538294826901505 L 0.12039878642490646 3.538294826901505 Q 0.11086494587089804 3.538294826901505 0.10555323470509334 3.531348743069299 Q 0.10024152353928864 3.5244026592370927 0.10024152353928864 3.5154136095718846 Q 0.10024152353928864 3.505334978129076 0.10487224609409274 3.4978441034080694 Q 0.10950296864889683 3.490353228687063 0.11985399553610598 3.490353228687063 L 0.19176639285776959 3.490353228687063 L 0.19176639285776959 3.1193506334139345 L 0.05829262510165155 3.1193506334139345 L 0.05012076176964432 3.197528125956804 Q 0.04903117999204336 3.207879152844013 0.04317467793743818 3.211828886787816 Q 0.037318175882832996 3.21577862073162 0.02778433532882457 3.21577862073162 L 0.02778433532882457 3.21577862073162 M 0.7693809327084804 3.361510183485749 Q 0.7693809327084804 3.3710440240397572 0.764477814709276 3.3771729215387625 Q 0.7595746967100717 3.383301819037768 0.7503132516004636 3.383301819037768 Q 0.741868992824056 3.383301819037768 0.7362848862138511 3.377853910149763 Q 0.7307007796036462 3.3724060012617585 0.7285216160484442 3.3647789288185517 L 0.714629448384032 3.314113376160107 L 0.6236493699543515 3.314113376160107 L 0.6236493699543515 3.490353228687063 L 0.8641745473597642 3.490353228687063 L 0.8957724189101921 3.4004627320349834 Q 0.8995859551317955 3.3920184732585756 0.9063958412418015 3.3858895757595704 Q 0.9132057273518075 3.379760678260565 0.923829149683417 3.379760678260565 Q 0.9328181993486249 3.379760678260565 0.9382661082366297 3.3852085871485698 Q 0.9437140171246345 3.3906564960365744 0.9437140171246345 3.3999179411461826 Q 0.9437140171246345 3.402641895590185 0.9433054239580342 3.4053658500341877 Q 0.9428968307914338 3.4080898044781898 0.9420796444582331 3.410541363477792 L 0.9249187314610179 3.5170479822382865 Q 0.9221947770170156 3.526854218236695 0.9172916590178112 3.5325745225691 Q 0.9123885410186068 3.538294826901505 0.9025823050201982 3.538294826901505 L 0.4830933206438272 3.538294826901505 Q 0.4735594800898188 3.538294826901505 0.4682477689240141 3.531348743069299 Q 0.4629360577582094 3.5244026592370927 0.4629360577582094 3.5154136095718846 Q 0.4629360577582094 3.505334978129076 0.46756678031301346 3.4978441034080694 Q 0.4721975028678176 3.490353228687063 0.4825485297550267 3.490353228687063 L 0.5601812314090954 3.490353228687063 L 0.5601812314090954 3.1193506334139345 L 0.5103328650838513 3.1193506334139345 Q 0.49998183819664216 3.1193506334139345 0.4954873133640382 3.111859758692928 Q 0.4909927885314342 3.1043688839719215 0.4909927885314342 3.0942902525291123 Q 0.4909927885314342 3.0853012028639046 0.49616830197503875 3.0783551190316985 Q 0.5013438154186434 3.0714090351994923 0.5108776559726518 3.0714090351994923 L 0.8914140917997883 3.0714090351994923 Q 0.9012203277981969 3.0714090351994923 0.9058510503530011 3.0772655372540973 Q 0.9104817729078052 3.0831220393087024 0.913750518240608 3.092655879862711 L 0.9399004809030311 3.1790052357375873 Q 0.9407176672362318 3.18200158562599 0.9411262604028323 3.1847255400699925 Q 0.9415348535694326 3.187449494513995 0.9415348535694326 3.189628658069197 Q 0.9415348535694326 3.198617707734405 0.9359507469592276 3.20420181434461 Q 0.9303666403490227 3.2097859209548147 0.921649986128215 3.2097859209548147 Q 0.9115713546854061 3.2097859209548147 0.9043528754087997 3.203657023455809 Q 0.8971343961321934 3.197528125956804 0.8935932553549901 3.189083867180396 L 0.8641745473597642 3.1193506334139345 L 0.6236493699543515 3.1193506334139345 L 0.6236493699543515 3.274888432166472 L 0.714629448384032 3.274888432166472 L 0.7285216160484442 3.2242228795080274 Q 0.7307007796036462 3.2165958070648206 0.7362848862138511 3.211147898176816 Q 0.741868992824056 3.205699989288811 0.7503132516004636 3.205699989288811 Q 0.7595746967100717 3.205699989288811 0.764477814709276 3.211828886787816 Q 0.7693809327084804 3.217957784286822 0.7693809327084804 3.2274916248408303 L 0.7652950010424768 3.2934113223856887 L 0.7693809327084804 3.361510183485749 M 1.4273521286572621 3.3827570281489674 Q 1.4273521286572621 3.4481319348050254 1.3726006443328138 3.4966183239082684 Q 1.3178491600083653 3.545104713011511 1.2265966861342847 3.545104713011511 Q 1.1239036035953938 3.545104713011511 1.0553961493287334 3.4774144450780513 Q 0.9868886950620727 3.409724177144591 0.9868886950620727 3.2961352768296908 Q 0.9868886950620727 3.1923526125131994 1.0567581265507344 3.128475880801343 Q 1.1266275580393963 3.0645991490894864 1.2317721995778892 3.0645991490894864 Q 1.2761726570151284 3.0645991490894864 1.3080429240099567 3.079444700809299 Q 1.3399131910047848 3.0942902525291123 1.3644287810008064 3.1193506334139345 L 1.3644287810008064 3.0910215071963094 Q 1.3644287810008064 3.0806704803091005 1.3719196557218132 3.0760397577542964 Q 1.37941053044282 3.0714090351994923 1.3894891618856287 3.0714090351994923 Q 1.3984782115508367 3.0714090351994923 1.405424295383043 3.076720746365297 Q 1.4123703792152489 3.0820324575311018 1.4123703792152489 3.09156629808511 L 1.4123703792152489 3.1934421942908 Q 1.4123703792152489 3.2029760348448084 1.405424295383043 3.208287746010613 Q 1.3984782115508367 3.213599457176418 1.3894891618856287 3.213599457176418 Q 1.3802277167760204 3.213599457176418 1.3758693896656167 3.2063809778998116 Q 1.371511062555213 3.1991624986232052 1.3666079445560084 3.1923526125131994 Q 1.346723077114791 3.1596651591851703 1.3147166123977625 3.137873523633151 Q 1.2827101476807343 3.1160818880811316 1.2317721995778892 3.1160818880811316 Q 1.151143148035418 3.1160818880811316 1.104835922487377 3.1679732202393778 Q 1.058528696939336 3.2198645523976235 1.058528696939336 3.2991316267180935 Q 1.058528696939336 3.3884773324813726 1.103746340709776 3.440096269195218 Q 1.148963984480216 3.4917152059090637 1.2317721995778892 3.4917152059090637 Q 1.28924763834634 3.4917152059090637 1.3249314415627715 3.4605259275252362 Q 1.3606152447792033 3.429336649141409 1.370693876222012 3.377581514705363 Q 1.3726006443328138 3.3677752787069544 1.380908705387021 3.36300835842995 Q 1.3892167664412285 3.358241438152946 1.3984782115508367 3.358241438152946 Q 1.409101633882446 3.358241438152946 1.4182268812698542 3.3645065333741515 Q 1.4273521286572621 3.370771628595357 1.4273521286572621 3.3827570281489674 L 1.4273521286572621 3.3827570281489674 M 1.4669856658174971 3.5154136095718846 Q 1.4669856658174971 3.505334978129076 1.4716163883723012 3.4978441034080694 Q 1.4762471109271054 3.490353228687063 1.4865981378143145 3.490353228687063 L 1.5473423219155682 3.490353228687063 L 1.5473423219155682 3.1193506334139345 L 1.4923184421467197 3.1193506334139345 Q 1.4819674152595104 3.1193506334139345 1.4773366927047065 3.111859758692928 Q 1.4727059701499023 3.1043688839719215 1.4727059701499023 3.0942902525291123 Q 1.4727059701499023 3.0853012028639046 1.4780176813157069 3.0783551190316985 Q 1.4833293924815116 3.0714090351994923 1.49286323303552 3.0714090351994923 L 1.6658343402296731 3.0714090351994923 Q 1.6753681807836815 3.0714090351994923 1.680543694227286 3.0783551190316985 Q 1.6857192076708907 3.0853012028639046 1.6857192076708907 3.0942902525291123 Q 1.6857192076708907 3.1043688839719215 1.6812246828382866 3.111859758692928 Q 1.6767301580056828 3.1193506334139345 1.6663791311184735 3.1193506334139345 L 1.6110828559052246 3.1193506334139345 L 1.6110828559052246 3.2759780139440733 L 1.864955410086249 3.2759780139440733 L 1.864955410086249 3.1193506334139345 L 1.8096591348730002 3.1193506334139345 Q 1.799308107985791 3.1193506334139345 1.794677385430987 3.111859758692928 Q 1.7900466628761829 3.1043688839719215 1.7900466628761829 3.0942902525291123 Q 1.7900466628761829 3.0853012028639046 1.7953583740419876 3.0783551190316985 Q 1.8006700852077921 3.0714090351994923 1.8102039257618008 3.0714090351994923 L 1.9774547286235487 3.0714090351994923 Q 1.986988569177557 3.0714090351994923 1.9923002803433616 3.0783551190316985 Q 1.9976119915091664 3.0853012028639046 1.9976119915091664 3.0942902525291123 Q 1.9976119915091664 3.1043688839719215 1.9929812689543622 3.111859758692928 Q 1.988350546399558 3.1193506334139345 1.9779995195123492 3.1193506334139345 L 1.9284235486315053 3.1193506334139345 L 1.9284235486315053 3.490353228687063 L 1.9779995195123492 3.490353228687063 Q 1.988350546399558 3.490353228687063 1.9929812689543622 3.4978441034080694 Q 1.9976119915091664 3.505334978129076 1.9976119915091664 3.5154136095718846 Q 1.9976119915091664 3.5244026592370927 1.9923002803433616 3.531348743069299 Q 1.986988569177557 3.538294826901505 1.9774547286235487 3.538294826901505 L 1.8102039257618008 3.538294826901505 Q 1.8006700852077921 3.538294826901505 1.7953583740419876 3.531348743069299 Q 1.7900466628761829 3.5244026592370927 1.7900466628761829 3.5154136095718846 Q 1.7900466628761829 3.505334978129076 1.794677385430987 3.4978441034080694 Q 1.799308107985791 3.490353228687063 1.8096591348730002 3.490353228687063 L 1.864955410086249 3.490353228687063 L 1.864955410086249 3.3236472167141153 L 1.6110828559052246 3.3236472167141153 L 1.6110828559052246 3.490353228687063 L 1.6663791311184735 3.490353228687063 Q 1.6767301580056828 3.490353228687063 1.6812246828382866 3.4978441034080694 Q 1.6857192076708907 3.505334978129076 1.6857192076708907 3.5154136095718846 Q 1.6857192076708907 3.5244026592370927 1.680543694227286 3.531348743069299 Q 1.6753681807836815 3.538294826901505 1.6658343402296731 3.538294826901505 L 1.487142928703115 3.538294826901505 Q 1.4776090881491066 3.538294826901505 1.4722973769833019 3.531348743069299 Q 1.4669856658174971 3.5244026592370927 1.4669856658174971 3.5154136095718846 L 1.4669856658174971 3.5154136095718846 M 2.1449779269296965 3.5154136095718846 Q 2.1449779269296965 3.505334978129076 2.1496086494845006 3.4978441034080694 Q 2.1542393720393047 3.490353228687063 2.164590398926514 3.490353228687063 L 2.2253345830277675 3.490353228687063 L 2.2253345830277675 3.1193506334139345 L 2.170310703258919 3.1193506334139345 Q 2.15995967637171 3.1193506334139345 2.155328953816906 3.111859758692928 Q 2.1506982312621017 3.1043688839719215 2.1506982312621017 3.0942902525291123 Q 2.1506982312621017 3.0853012028639046 2.1560099424279064 3.0783551190316985 Q 2.161321653593711 3.0714090351994923 2.1708554941477196 3.0714090351994923 L 2.3438266013418723 3.0714090351994923 Q 2.3533604418958807 3.0714090351994923 2.3585359553394856 3.0783551190316985 Q 2.36371146878309 3.0853012028639046 2.36371146878309 3.0942902525291123 Q 2.36371146878309 3.1043688839719215 2.359216943950486 3.111859758692928 Q 2.354722419117882 3.1193506334139345 2.344371392230673 3.1193506334139345 L 2.289075117017424 3.1193506334139345 L 2.289075117017424 3.2759780139440733 L 2.5429476711984487 3.2759780139440733 L 2.5429476711984487 3.1193506334139345 L 2.4876513959852 3.1193506334139345 Q 2.4773003690979905 3.1193506334139345 2.4726696465431863 3.111859758692928 Q 2.468038923988382 3.1043688839719215 2.468038923988382 3.0942902525291123 Q 2.468038923988382 3.0853012028639046 2.473350635154187 3.0783551190316985 Q 2.4786623463199917 3.0714090351994923 2.488196186874 3.0714090351994923 L 2.655446989735748 3.0714090351994923 Q 2.6649808302897564 3.0714090351994923 2.670292541455561 3.0783551190316985 Q 2.675604252621366 3.0853012028639046 2.675604252621366 3.0942902525291123 Q 2.675604252621366 3.1043688839719215 2.670973530066562 3.111859758692928 Q 2.6663428075117577 3.1193506334139345 2.6559917806245483 3.1193506334139345 L 2.6064158097437047 3.1193506334139345 L 2.6064158097437047 3.490353228687063 L 2.6559917806245483 3.490353228687063 Q 2.6663428075117577 3.490353228687063 2.670973530066562 3.4978441034080694 Q 2.675604252621366 3.505334978129076 2.675604252621366 3.5154136095718846 Q 2.675604252621366 3.5244026592370927 2.670292541455561 3.531348743069299 Q 2.6649808302897564 3.538294826901505 2.655446989735748 3.538294826901505 L 2.488196186874 3.538294826901505 Q 2.4786623463199917 3.538294826901505 2.473350635154187 3.531348743069299 Q 2.468038923988382 3.5244026592370927 2.468038923988382 3.5154136095718846 Q 2.468038923988382 3.505334978129076 2.4726696465431863 3.4978441034080694 Q 2.4773003690979905 3.490353228687063 2.4876513959852 3.490353228687063 L 2.5429476711984487 3.490353228687063 L 2.5429476711984487 3.3236472167141153 L 2.289075117017424 3.3236472167141153 L 2.289075117017424 3.490353228687063 L 2.344371392230673 3.490353228687063 Q 2.354722419117882 3.490353228687063 2.359216943950486 3.4978441034080694 Q 2.36371146878309 3.505334978129076 2.36371146878309 3.5154136095718846 Q 2.36371146878309 3.5244026592370927 2.3585359553394856 3.531348743069299 Q 2.3533604418958807 3.538294826901505 2.3438266013418723 3.538294826901505 L 2.1651351898153144 3.538294826901505 Q 2.155601349261306 3.538294826901505 2.150289638095501 3.531348743069299 Q 2.1449779269296965 3.5244026592370927 2.1449779269296965 3.5154136095718846 L 2.1449779269296965 3.5154136095718846 M 3.0020701927350544 3.361510183485749 Q 3.0020701927350544 3.3710440240397572 2.99716707473585 3.3771729215387625 Q 2.992263956736646 3.383301819037768 2.9830025116270376 3.383301819037768 Q 2.9745582528506302 3.383301819037768 2.9689741462404253 3.377853910149763 Q 2.9633900396302204 3.3724060012617585 2.9612108760750186 3.3647789288185517 L 2.9473187084106063 3.314113376160107 L 2.8563386299809257 3.314113376160107 L 2.8563386299809257 3.490353228687063 L 3.0968638073863386 3.490353228687063 L 3.1284616789367665 3.4004627320349834 Q 3.1322752151583697 3.3920184732585756 3.1390851012683756 3.3858895757595704 Q 3.145894987378382 3.379760678260565 3.1565184097099914 3.379760678260565 Q 3.165507459375199 3.379760678260565 3.170955368263204 3.3852085871485698 Q 3.1764032771512087 3.3906564960365744 3.1764032771512087 3.3999179411461826 Q 3.1764032771512087 3.402641895590185 3.1759946839846083 3.4053658500341877 Q 3.1755860908180082 3.4080898044781898 3.1747689044848073 3.410541363477792 L 3.157607991487592 3.5170479822382865 Q 3.1548840370435896 3.526854218236695 3.1499809190443853 3.5325745225691 Q 3.145077801045181 3.538294826901505 3.1352715650467724 3.538294826901505 L 2.7157825806704015 3.538294826901505 Q 2.706248740116393 3.538294826901505 2.7009370289505883 3.531348743069299 Q 2.6956253177847835 3.5244026592370927 2.6956253177847835 3.5154136095718846 Q 2.6956253177847835 3.505334978129076 2.7002560403395877 3.4978441034080694 Q 2.704886762894392 3.490353228687063 2.715237789781601 3.490353228687063 L 2.7928704914356697 3.490353228687063 L 2.7928704914356697 3.1193506334139345 L 2.7430221251104254 3.1193506334139345 Q 2.7326710982232165 3.1193506334139345 2.7281765733906123 3.111859758692928 Q 2.7236820485580084 3.1043688839719215 2.7236820485580084 3.0942902525291123 Q 2.7236820485580084 3.0853012028639046 2.728857562001613 3.0783551190316985 Q 2.734033075445218 3.0714090351994923 2.743566915999226 3.0714090351994923 L 3.1241033518263626 3.0714090351994923 Q 3.133909587824771 3.0714090351994923 3.1385403103795753 3.0772655372540973 Q 3.1431710329343794 3.0831220393087024 3.1464397782671822 3.092655879862711 L 3.1725897409296056 3.1790052357375873 Q 3.173406927262806 3.18200158562599 3.1738155204294065 3.1847255400699925 Q 3.174224113596007 3.187449494513995 3.174224113596007 3.189628658069197 Q 3.174224113596007 3.198617707734405 3.168640006985802 3.20420181434461 Q 3.163055900375597 3.2097859209548147 3.1543392461547892 3.2097859209548147 Q 3.1442606147119805 3.2097859209548147 3.137042135435374 3.203657023455809 Q 3.1298236561587673 3.197528125956804 3.1262825153815643 3.189083867180396 L 3.0968638073863386 3.1193506334139345 L 2.8563386299809257 3.1193506334139345 L 2.8563386299809257 3.274888432166472 L 2.9473187084106063 3.274888432166472 L 2.9612108760750186 3.2242228795080274 Q 2.9633900396302204 3.2165958070648206 2.9689741462404253 3.211147898176816 Q 2.9745582528506302 3.205699989288811 2.9830025116270376 3.205699989288811 Q 2.992263956736646 3.205699989288811 2.99716707473585 3.211828886787816 Q 3.0020701927350544 3.217957784286822 3.0020701927350544 3.2274916248408303 L 2.997984261069051 3.2934113223856887 L 3.0020701927350544 3.361510183485749 M 3.4541104327172545 3.0942902525291123 Q 3.4541104327172545 3.1043688839719215 3.4494797101624504 3.111859758692928 Q 3.4448489876076462 3.1193506334139345 3.4344979607204373 3.1193506334139345 L 3.3737537766191834 3.1193506334139345 L 3.3737537766191834 3.490353228687063 L 3.565520169476953 3.490353228687063 Q 3.5886737822509733 3.490353228687063 3.605426102081588 3.4838157380214567 Q 3.6221784219122033 3.477278247355851 3.624085190023005 3.4557590072482323 L 3.631984657910612 3.3792158873717644 Q 3.633074239688213 3.3702268377065563 3.638930741742818 3.366140906040553 Q 3.644787243797423 3.362054974374549 3.6543210843514315 3.362054974374549 Q 3.6643997157942403 3.362054974374549 3.6718905905152472 3.367502883262554 Q 3.6793814652362538 3.372950792150559 3.6793814652362538 3.3838466099265685 L 3.667123670238243 3.5197719366822886 Q 3.6663064839050423 3.5273990091254954 3.6622205522390385 3.5328469180135005 Q 3.6581346205730347 3.538294826901505 3.650507548129828 3.538294826901505 L 3.228567004753855 3.538294826901505 Q 3.2190331641998466 3.538294826901505 3.213721453034042 3.531348743069299 Q 3.208409741868237 3.5244026592370927 3.208409741868237 3.5154136095718846 Q 3.208409741868237 3.505334978129076 3.2130404644230413 3.4978441034080694 Q 3.2176711869778454 3.490353228687063 3.2280222138650547 3.490353228687063 L 3.3100132426295272 3.490353228687063 L 3.3100132426295272 3.1193506334139345 L 3.2449107314178693 3.1193506334139345 Q 3.2345597045306604 3.1193506334139345 3.2299289819758563 3.111859758692928 Q 3.225298259421052 3.1043688839719215 3.225298259421052 3.0942902525291123 Q 3.225298259421052 3.0853012028639046 3.230609970586857 3.0783551190316985 Q 3.2359216817526617 3.0714090351994923 3.24545552230667 3.0714090351994923 L 3.4339531698316366 3.0714090351994923 Q 3.443487010385645 3.0714090351994923 3.4487987215514497 3.0783551190316985 Q 3.4541104327172545 3.0853012028639046 3.4541104327172545 3.0942902525291123 L 3.4541104327172545 3.0942902525291123 M 4.090562388558417 3.2051551984000106 Q 4.090562388558417 3.141142268965954 4.034448927011968 3.130246451189944 Q 3.978335465465518 3.1193506334139345 3.921132422141467 3.1193506334139345 L 3.8647465651506177 3.1193506334139345 L 3.8647465651506177 3.2961352768296908 L 3.937748544249882 3.2961352768296908 Q 3.996313564795934 3.2961352768296908 4.0434379766771755 3.2831964932206796 Q 4.090562388558417 3.270257709611668 4.090562388558417 3.2051551984000106 L 4.090562388558417 3.2051551984000106 M 4.154847713436874 3.209241130066014 Q 4.154847713436874 3.3034899538284974 4.08252672294861 3.3221490417699138 Q 4.010205732460346 3.3408081297113306 3.9233115856966694 3.3408081297113306 L 3.8647465651506177 3.3408081297113306 L 3.8647465651506177 3.490353228687063 L 3.947827175692691 3.490353228687063 Q 3.9581782025799 3.490353228687063 3.9628089251347043 3.4978441034080694 Q 3.9674396476895084 3.505334978129076 3.9674396476895084 3.5154136095718846 Q 3.9674396476895084 3.5244026592370927 3.9621279365237037 3.531348743069299 Q 3.956816225357899 3.538294826901505 3.9472823848038905 3.538294826901505 L 3.729638424728098 3.538294826901505 Q 3.7201045841740896 3.538294826901505 3.714792873008285 3.531348743069299 Q 3.70948116184248 3.5244026592370927 3.70948116184248 3.5154136095718846 Q 3.70948116184248 3.505334978129076 3.7141118843972842 3.4978441034080694 Q 3.7187426069520884 3.490353228687063 3.7290936338392977 3.490353228687063 L 3.801006031160961 3.490353228687063 L 3.801006031160961 3.1193506334139345 L 3.7348139381717025 3.1193506334139345 Q 3.7244629112844936 3.1193506334139345 3.7198321887296895 3.111859758692928 Q 3.7152014661748853 3.1043688839719215 3.7152014661748853 3.0942902525291123 Q 3.7152014661748853 3.0853012028639046 3.72051317734069 3.0783551190316985 Q 3.725824888506495 3.0714090351994923 3.7353587290605033 3.0714090351994923 L 3.91323295425386 3.0714090351994923 Q 4.004213032683541 3.0714090351994923 4.079530373060208 3.09156629808511 Q 4.154847713436874 3.111723560970728 4.154847713436874 3.209241130066014 L 4.154847713436874 3.209241130066014 M 4.329180797853028 3.21577862073162 Q 4.32019174818782 3.21577862073162 4.315424827910816 3.2097859209548147 Q 4.310657907633812 3.2037932211780094 4.310657907633812 3.193986985179601 L 4.314743839299815 3.092655879862711 Q 4.315016234744215 3.0820324575311018 4.318557375521419 3.076720746365297 Q 4.322098516298622 3.0714090351994923 4.33135996140823 3.0714090351994923 L 4.724154192233377 3.0714090351994923 Q 4.732870846454185 3.0714090351994923 4.736684382675788 3.076856944087497 Q 4.7404979188973915 3.082304852975502 4.740770314341792 3.092655879862711 L 4.744856246007796 3.193986985179601 Q 4.744856246007796 3.2037932211780094 4.740089325730791 3.2097859209548147 Q 4.735322405453787 3.21577862073162 4.726333355788579 3.21577862073162 Q 4.7167995152345705 3.21577862073162 4.710943013179966 3.2116926890656163 Q 4.70508651112536 3.2076067573996125 4.70399692934776 3.197528125956804 L 4.695552670571352 3.1193506334139345 L 4.556630993927229 3.1193506334139345 L 4.556630993927229 3.490353228687063 L 4.628815786693293 3.490353228687063 Q 4.639166813580502 3.490353228687063 4.643661338413106 3.4978441034080694 Q 4.64815586324571 3.505334978129076 4.64815586324571 3.5154136095718846 Q 4.64815586324571 3.5244026592370927 4.642980349802105 3.531348743069299 Q 4.637804836358501 3.538294826901505 4.628270995804493 3.538294826901505 L 4.42179524894911 3.538294826901505 Q 4.412261408395102 3.538294826901505 4.4069496972292965 3.531348743069299 Q 4.401637986063492 3.5244026592370927 4.401637986063492 3.5154136095718846 Q 4.401637986063492 3.505334978129076 4.406268708618296 3.4978441034080694 Q 4.4108994311731005 3.490353228687063 4.421250458060309 3.490353228687063 L 4.493162855381973 3.490353228687063 L 4.493162855381973 3.1193506334139345 L 4.3596890876258545 3.1193506334139345 L 4.351517224293848 3.197528125956804 Q 4.350427642516247 3.207879152844013 4.344571140461642 3.211828886787816 Q 4.338714638407036 3.21577862073162 4.329180797853028 3.21577862073162 L 4.329180797853028 3.21577862073162 M 4.764332520282412 3.5154136095718846 Q 4.764332520282412 3.505334978129076 4.768963242837216 3.4978441034080694 Q 4.7735939653920205 3.490353228687063 4.783944992279229 3.490353228687063 L 4.844689176380483 3.490353228687063 L 4.844689176380483 3.1193506334139345 L 4.789665296611635 3.1193506334139345 Q 4.779314269724425 3.1193506334139345 4.774683547169621 3.111859758692928 Q 4.770052824614817 3.1043688839719215 4.770052824614817 3.0942902525291123 Q 4.770052824614817 3.0853012028639046 4.775364535780622 3.0783551190316985 Q 4.780676246946427 3.0714090351994923 4.790210087500435 3.0714090351994923 L 4.963181194694588 3.0714090351994923 Q 4.972715035248597 3.0714090351994923 4.977890548692201 3.0783551190316985 Q 4.983066062135806 3.0853012028639046 4.983066062135806 3.0942902525291123 Q 4.983066062135806 3.1043688839719215 4.978571537303202 3.111859758692928 Q 4.974077012470598 3.1193506334139345 4.963725985583388 3.1193506334139345 L 4.9084297103701395 3.1193506334139345 L 4.9084297103701395 3.2759780139440733 L 5.1623022645511645 3.2759780139440733 L 5.1623022645511645 3.1193506334139345 L 5.107005989337916 3.1193506334139345 Q 5.096654962450707 3.1193506334139345 5.092024239895903 3.111859758692928 Q 5.0873935173410985 3.1043688839719215 5.0873935173410985 3.0942902525291123 Q 5.0873935173410985 3.0853012028639046 5.092705228506903 3.0783551190316985 Q 5.098016939672707 3.0714090351994923 5.107550780226716 3.0714090351994923 L 5.274801583088464 3.0714090351994923 Q 5.284335423642473 3.0714090351994923 5.289647134808277 3.0783551190316985 Q 5.294958845974081 3.0853012028639046 5.294958845974081 3.0942902525291123 Q 5.294958845974081 3.1043688839719215 5.290328123419277 3.111859758692928 Q 5.285697400864473 3.1193506334139345 5.275346373977264 3.1193506334139345 L 5.22577040309642 3.1193506334139345 L 5.22577040309642 3.490353228687063 L 5.275346373977264 3.490353228687063 Q 5.285697400864473 3.490353228687063 5.290328123419277 3.4978441034080694 Q 5.294958845974081 3.505334978129076 5.294958845974081 3.5154136095718846 Q 5.294958845974081 3.5244026592370927 5.289647134808277 3.531348743069299 Q 5.284335423642473 3.538294826901505 5.274801583088464 3.538294826901505 L 5.107550780226716 3.538294826901505 Q 5.098016939672707 3.538294826901505 5.092705228506903 3.531348743069299 Q 5.0873935173410985 3.5244026592370927 5.0873935173410985 3.5154136095718846 Q 5.0873935173410985 3.505334978129076 5.092024239895903 3.4978441034080694 Q 5.096654962450707 3.490353228687063 5.107005989337916 3.490353228687063 L 5.1623022645511645 3.490353228687063 L 5.1623022645511645 3.3236472167141153 L 4.9084297103701395 3.3236472167141153 L 4.9084297103701395 3.490353228687063 L 4.963725985583388 3.490353228687063 Q 4.974077012470598 3.490353228687063 4.978571537303202 3.4978441034080694 Q 4.983066062135806 3.505334978129076 4.983066062135806 3.5154136095718846 Q 4.983066062135806 3.5244026592370927 4.977890548692201 3.531348743069299 Q 4.972715035248597 3.538294826901505 4.963181194694588 3.538294826901505 L 4.784489783168031 3.538294826901505 Q 4.774955942614022 3.538294826901505 4.7696442314482175 3.531348743069299 Q 4.764332520282412 3.5244026592370927 4.764332520282412 3.5154136095718846 L 4.764332520282412 3.5154136095718846 M 5.30517367513909 3.5154136095718846 Q 5.30517367513909 3.505334978129076 5.3098043976938945 3.4978441034080694 Q 5.314435120248699 3.490353228687063 5.3247861471359075 3.490353228687063 L 5.362649113907541 3.490353228687063 L 5.542974898100501 3.0831220393087024 Q 5.5470608297665045 3.073588198754694 5.555232693098511 3.0658249285892873 Q 5.563404556430519 3.0580616584238802 5.57647953776173 3.0580616584238802 Q 5.590099309981742 3.0580616584238802 5.597317789258349 3.0660973240336875 Q 5.604536268534955 3.074132989643495 5.6086222002009585 3.0842116210863035 L 5.772331862285504 3.490353228687063 L 5.820818251388746 3.490353228687063 Q 5.831169278275955 3.490353228687063 5.8356638031085595 3.4978441034080694 Q 5.840158327941164 3.505334978129076 5.840158327941164 3.5154136095718846 Q 5.840158327941164 3.5244026592370927 5.834982814497559 3.531348743069299 Q 5.829807301053954 3.538294826901505 5.820273460499946 3.538294826901505 L 5.644578398861791 3.538294826901505 Q 5.635044558307782 3.538294826901505 5.629732847141978 3.531348743069299 Q 5.624421135976172 3.5244026592370927 5.624421135976172 3.5154136095718846 Q 5.624421135976172 3.505334978129076 5.629051858530977 3.4978441034080694 Q 5.633682581085781 3.490353228687063 5.64403360797299 3.490353228687063 L 5.703688210296643 3.490353228687063 L 5.663373684525407 3.3838466099265685 L 5.4658869873352325 3.3838466099265685 L 5.423120902564395 3.490353228687063 L 5.4737864552228395 3.490353228687063 Q 5.484137482110048 3.490353228687063 5.4887682046648525 3.4978441034080694 Q 5.493398927219657 3.505334978129076 5.493398927219657 3.5154136095718846 Q 5.493398927219657 3.5244026592370927 5.488087216053852 3.531348743069299 Q 5.482775504888047 3.538294826901505 5.473241664334039 3.538294826901505 L 5.325330938024708 3.538294826901505 Q 5.3157970974707 3.538294826901505 5.310485386304895 3.531348743069299 Q 5.30517367513909 3.5244026592370927 5.30517367513909 3.5154136095718846 L 5.30517367513909 3.5154136095718846 M 5.482775504888047 3.341897711488931 L 5.647847144194594 3.341897711488931 L 5.568035278985323 3.129974055745544 L 5.482775504888047 3.341897711488931 M 5.868351256436588 3.21577862073162 Q 5.8593622067713795 3.21577862073162 5.8545952864943756 3.2097859209548147 Q 5.849828366217372 3.2037932211780094 5.849828366217372 3.193986985179601 L 5.853914297883375 3.092655879862711 Q 5.854186693327775 3.0820324575311018 5.8577278341049785 3.076720746365297 Q 5.861268974882182 3.0714090351994923 5.870530419991789 3.0714090351994923 L 6.263324650816937 3.0714090351994923 Q 6.272041305037745 3.0714090351994923 6.275854841259348 3.076856944087497 Q 6.279668377480951 3.082304852975502 6.279940772925352 3.092655879862711 L 6.284026704591356 3.193986985179601 Q 6.284026704591356 3.2037932211780094 6.279259784314351 3.2097859209548147 Q 6.274492864037347 3.21577862073162 6.265503814372139 3.21577862073162 Q 6.2559699738181305 3.21577862073162 6.250113471763526 3.2116926890656163 Q 6.24425696970892 3.2076067573996125 6.24316738793132 3.197528125956804 L 6.2347231291549114 3.1193506334139345 L 6.095801452510789 3.1193506334139345 L 6.095801452510789 3.490353228687063 L 6.167986245276853 3.490353228687063 Q 6.178337272164062 3.490353228687063 6.182831796996666 3.4978441034080694 Q 6.18732632182927 3.505334978129076 6.18732632182927 3.5154136095718846 Q 6.18732632182927 3.5244026592370927 6.182150808385665 3.531348743069299 Q 6.176975294942061 3.538294826901505 6.167441454388053 3.538294826901505 L 5.96096570753267 3.538294826901505 Q 5.951431866978662 3.538294826901505 5.9461201558128565 3.531348743069299 Q 5.940808444647052 3.5244026592370927 5.940808444647052 3.5154136095718846 Q 5.940808444647052 3.505334978129076 5.945439167201856 3.4978441034080694 Q 5.95006988975666 3.490353228687063 5.960420916643869 3.490353228687063 L 6.032333313965533 3.490353228687063 L 6.032333313965533 3.1193506334139345 L 5.898859546209414 3.1193506334139345 L 5.890687682877408 3.197528125956804 Q 5.889598101099807 3.207879152844013 5.8837415990452016 3.211828886787816 Q 5.877885096990596 3.21577862073162 5.868351256436588 3.21577862073162 L 5.868351256436588 3.21577862073162 M 6.882479495938684 3.3827570281489674 Q 6.882479495938684 3.4481319348050254 6.827728011614235 3.4966183239082684 Q 6.772976527289788 3.545104713011511 6.6817240534157065 3.545104713011511 Q 6.579030970876816 3.545104713011511 6.510523516610156 3.4774144450780513 Q 6.4420160623434946 3.409724177144591 6.4420160623434946 3.2961352768296908 Q 6.4420160623434946 3.1923526125131994 6.511885493832157 3.128475880801343 Q 6.581754925320818 3.0645991490894864 6.686899566859311 3.0645991490894864 Q 6.731300024296551 3.0645991490894864 6.763170291291379 3.079444700809299 Q 6.795040558286207 3.0942902525291123 6.819556148282229 3.1193506334139345 L 6.819556148282229 3.0910215071963094 Q 6.819556148282229 3.0806704803091005 6.827047023003235 3.0760397577542964 Q 6.834537897724242 3.0714090351994923 6.844616529167051 3.0714090351994923 Q 6.8536055788322585 3.0714090351994923 6.860551662664465 3.076720746365297 Q 6.867497746496671 3.0820324575311018 6.867497746496671 3.09156629808511 L 6.867497746496671 3.1934421942908 Q 6.867497746496671 3.2029760348448084 6.860551662664465 3.208287746010613 Q 6.8536055788322585 3.213599457176418 6.844616529167051 3.213599457176418 Q 6.835355084057443 3.213599457176418 6.830996756947039 3.2063809778998116 Q 6.826638429836635 3.1991624986232052 6.821735311837431 3.1923526125131994 Q 6.801850444396213 3.1596651591851703 6.769843979679185 3.137873523633151 Q 6.737837514962156 3.1160818880811316 6.686899566859311 3.1160818880811316 Q 6.60627051531684 3.1160818880811316 6.559963289768799 3.1679732202393778 Q 6.513656064220758 3.2198645523976235 6.513656064220758 3.2991316267180935 Q 6.513656064220758 3.3884773324813726 6.558873707991198 3.440096269195218 Q 6.604091351761638 3.4917152059090637 6.686899566859311 3.4917152059090637 Q 6.744375005627762 3.4917152059090637 6.780058808844194 3.4605259275252362 Q 6.8157426120606255 3.429336649141409 6.825821243503434 3.377581514705363 Q 6.827728011614235 3.3677752787069544 6.836036072668443 3.36300835842995 Q 6.84434413372265 3.358241438152946 6.8536055788322585 3.358241438152946 Q 6.864229001163868 3.358241438152946 6.873354248551276 3.3645065333741515 Q 6.882479495938684 3.370771628595357 6.882479495938684 3.3827570281489674 L 6.882479495938684 3.3827570281489674 M 7.175440796391143 3.545104713011511 Q 7.068934177630649 3.545104713011511 7.001107711974989 3.4798660040776532 Q 6.933281246319329 3.414627295143796 6.933281246319329 3.3067586991613003 Q 6.933281246319329 3.198617707734405 7.001107711974989 3.1316084284119454 Q 7.068934177630649 3.0645991490894864 7.175440796391143 3.0645991490894864 Q 7.283309392373639 3.0645991490894864 7.351544451195899 3.1316084284119454 Q 7.419779510018159 3.198617707734405 7.419779510018159 3.3067586991613003 Q 7.419779510018159 3.414627295143796 7.351272055751499 3.4798660040776532 Q 7.282764601484838 3.545104713011511 7.175440796391143 3.545104713011511 L 7.175440796391143 3.545104713011511 M 7.172989237391541 3.1160818880811316 Q 7.091815394960269 3.1160818880811316 7.04659775118983 3.1701523837945795 Q 7.00138010741939 3.2242228795080274 7.00138010741939 3.3067586991613003 Q 7.00138010741939 3.389294518814573 7.047823530689631 3.4414582464172194 Q 7.094266953959872 3.4936219740198657 7.1776199599463455 3.4936219740198657 Q 7.259066197822017 3.4936219740198657 7.305645818814459 3.44213923502822 Q 7.3522254398069 3.3906564960365744 7.3522254398069 3.307303490050101 Q 7.3522254398069 3.2231332977304263 7.304420039314658 3.169607592905779 Q 7.256614638822415 3.1160818880811316 7.172989237391541 3.1160818880811316 L 7.172989237391541 3.1160818880811316 M 7.887891081219974 3.5154136095718846 Q 7.887891081219974 3.505334978129076 7.892521803774778 3.4978441034080694 Q 7.897152526329582 3.490353228687063 7.907503553216791 3.490353228687063 L 7.957079524097635 3.490353228687063 L 7.957079524097635 3.2018864530672078 L 7.792552675679889 3.5105104915726804 Q 7.789828721235887 3.517592773127087 7.783018835125881 3.5229044842928916 Q 7.776208949015874 3.5282161954586964 7.766947503906266 3.5282161954586964 Q 7.758503245129859 3.5282161954586964 7.751829556742053 3.523721670626092 Q 7.745155868354247 3.5192271457934883 7.742431913910245 3.513234446016683 L 7.588256092379709 3.198072916845604 L 7.588256092379709 3.490353228687063 L 7.6435523675929575 3.490353228687063 Q 7.653903394480166 3.490353228687063 7.658534117034971 3.4978441034080694 Q 7.663164839589775 3.505334978129076 7.663164839589775 3.5154136095718846 Q 7.663164839589775 3.5244026592370927 7.6578531284239695 3.531348743069299 Q 7.652541417258165 3.538294826901505 7.643007576704157 3.538294826901505 L 7.471126051287605 3.538294826901505 Q 7.461592210733596 3.538294826901505 7.456280499567792 3.531348743069299 Q 7.450968788401987 3.5244026592370927 7.450968788401987 3.5154136095718846 Q 7.450968788401987 3.505334978129076 7.455599510956791 3.4978441034080694 Q 7.460230233511595 3.490353228687063 7.470581260398804 3.490353228687063 L 7.531325444500058 3.490353228687063 L 7.531325444500058 3.1193506334139345 L 7.47630156473121 3.1193506334139345 Q 7.465950537844 3.1193506334139345 7.461319815289196 3.111859758692928 Q 7.456689092734392 3.1043688839719215 7.456689092734392 3.0942902525291123 Q 7.456689092734392 3.0853012028639046 7.462000803900197 3.0783551190316985 Q 7.467312515066001 3.0714090351994923 7.47684635562001 3.0714090351994923 L 7.568371224938491 3.0714090351994923 Q 7.575725901937298 3.0714090351994923 7.579948031325501 3.0757673623098962 Q 7.584170160713705 3.0801256894203 7.586621719713307 3.0853012028639046 L 7.766947503906266 3.448949121138226 L 7.959258687652836 3.0831220393087024 Q 7.961710246652439 3.0784913167538983 7.9660685737628425 3.0749501759766953 Q 7.970426900873246 3.0714090351994923 7.977236786983252 3.0714090351994923 L 8.06413093374693 3.0714090351994923 Q 8.073664774300937 3.0714090351994923 8.078976485466743 3.0783551190316985 Q 8.084288196632547 3.0853012028639046 8.084288196632547 3.0942902525291123 Q 8.084288196632547 3.1043688839719215 8.079657474077743 3.111859758692928 Q 8.07502675152294 3.1193506334139345 8.06467572463573 3.1193506334139345 L 8.015099753754885 3.1193506334139345 L 8.015099753754885 3.490353228687063 L 8.070396028968135 3.490353228687063 Q 8.080747055855344 3.490353228687063 8.085241580687947 3.4978441034080694 Q 8.089736105520553 3.505334978129076 8.089736105520553 3.5154136095718846 Q 8.089736105520553 3.5244026592370927 8.084560592076947 3.531348743069299 Q 8.079385078633342 3.538294826901505 8.069851238079334 3.538294826901505 L 7.908048344105591 3.538294826901505 Q 7.898514503551583 3.538294826901505 7.893202792385778 3.531348743069299 Q 7.887891081219974 3.5244026592370927 7.887891081219974 3.5154136095718846 L 7.887891081219974 3.5154136095718846 M 8.41620204563424 3.361510183485749 Q 8.41620204563424 3.3710440240397572 8.411298927635036 3.3771729215387625 Q 8.406395809635832 3.383301819037768 8.397134364526224 3.383301819037768 Q 8.388690105749816 3.383301819037768 8.38310599913961 3.377853910149763 Q 8.377521892529407 3.3724060012617585 8.375342728974204 3.3647789288185517 L 8.361450561309791 3.314113376160107 L 8.270470482880112 3.314113376160107 L 8.270470482880112 3.490353228687063 L 8.510995660285523 3.490353228687063 L 8.542593531835951 3.4004627320349834 Q 8.546407068057556 3.3920184732585756 8.553216954167562 3.3858895757595704 Q 8.560026840277567 3.379760678260565 8.570650262609178 3.379760678260565 Q 8.579639312274384 3.379760678260565 8.58508722116239 3.3852085871485698 Q 8.590535130050394 3.3906564960365744 8.590535130050394 3.3999179411461826 Q 8.590535130050394 3.402641895590185 8.590126536883794 3.4053658500341877 Q 8.589717943717194 3.4080898044781898 8.588900757383993 3.410541363477792 L 8.571739844386778 3.5170479822382865 Q 8.569015889942776 3.526854218236695 8.564112771943572 3.5325745225691 Q 8.559209653944366 3.538294826901505 8.549403417945959 3.538294826901505 L 8.129914433569587 3.538294826901505 Q 8.120380593015579 3.538294826901505 8.115068881849774 3.531348743069299 Q 8.10975717068397 3.5244026592370927 8.10975717068397 3.5154136095718846 Q 8.10975717068397 3.505334978129076 8.114387893238774 3.4978441034080694 Q 8.119018615793578 3.490353228687063 8.129369642680787 3.490353228687063 L 8.207002344334855 3.490353228687063 L 8.207002344334855 3.1193506334139345 L 8.157153978009612 3.1193506334139345 Q 8.146802951122401 3.1193506334139345 8.142308426289798 3.111859758692928 Q 8.137813901457195 3.1043688839719215 8.137813901457195 3.0942902525291123 Q 8.137813901457195 3.0853012028639046 8.142989414900798 3.0783551190316985 Q 8.148164928344404 3.0714090351994923 8.157698768898412 3.0714090351994923 L 8.538235204725549 3.0714090351994923 Q 8.548041440723956 3.0714090351994923 8.55267216327876 3.0772655372540973 Q 8.557302885833565 3.0831220393087024 8.560571631166368 3.092655879862711 L 8.586721593828791 3.1790052357375873 Q 8.587538780161992 3.18200158562599 8.587947373328593 3.1847255400699925 Q 8.588355966495193 3.187449494513995 8.588355966495193 3.189628658069197 Q 8.588355966495193 3.198617707734405 8.582771859884987 3.20420181434461 Q 8.577187753274783 3.2097859209548147 8.568471099053975 3.2097859209548147 Q 8.558392467611165 3.2097859209548147 8.55117398833456 3.203657023455809 Q 8.543955509057954 3.197528125956804 8.54041436828075 3.189083867180396 L 8.510995660285523 3.1193506334139345 L 8.270470482880112 3.1193506334139345 L 8.270470482880112 3.274888432166472 L 8.361450561309791 3.274888432166472 L 8.375342728974204 3.2242228795080274 Q 8.377521892529407 3.2165958070648206 8.38310599913961 3.211147898176816 Q 8.388690105749816 3.205699989288811 8.397134364526224 3.205699989288811 Q 8.406395809635832 3.205699989288811 8.411298927635036 3.211828886787816 Q 8.41620204563424 3.217957784286822 8.41620204563424 3.2274916248408303 L 8.412116113968237 3.2934113223856887 L 8.41620204563424 3.361510183485749 M 8.832013691511207 3.1076376293047243 Q 8.76663878485515 3.1076376293047243 8.745391940191931 3.132289417022946 Q 8.724145095528712 3.156941204741168 8.724145095528712 3.1877218899583952 Q 8.724145095528712 3.2141442480652183 8.742531788025728 3.2303517770070327 Q 8.760918480522744 3.246559305948847 8.797419470072377 3.255548355614055 L 8.875596962615246 3.274888432166472 Q 8.929258865162094 3.288235808942084 8.963035900267723 3.3186079009927107 Q 8.996812935373352 3.3489799930433377 8.996812935373352 3.413537713366195 Q 8.996812935373352 3.4840881334658573 8.940971869271303 3.5148688186830843 Q 8.885130803169254 3.5456495039003117 8.81376319673639 3.5456495039003117 Q 8.784889279629965 3.5456495039003117 8.75465338530154 3.538022431457105 Q 8.724417490973112 3.530395359013898 8.698267528310689 3.5124172596834824 Q 8.697177946533088 3.52167870479309 8.692547223978284 3.533391708902301 Q 8.68791650142348 3.545104713011511 8.678655056313872 3.545104713011511 Q 8.668848820315462 3.545104713011511 8.662856120538658 3.5410187813455076 Q 8.656863420761852 3.536932849679504 8.655773838984251 3.5276714045698956 L 8.640247298653438 3.3925632641473764 Q 8.640247298653438 3.3816674463713667 8.646784789319044 3.376355735205562 Q 8.65332227998465 3.3710440240397572 8.666397261315861 3.3710440240397572 Q 8.674569124647869 3.3710440240397572 8.680834219869073 3.375810944316761 Q 8.687099315090279 3.3805778645937656 8.68818889686788 3.388749727925773 L 8.692547223978284 3.4266126946974063 Q 8.695271178422287 3.4519454710266286 8.730137795305517 3.474690490634049 Q 8.765004412188748 3.497435510241469 8.806953310626385 3.497435510241469 Q 8.853532931618826 3.497435510241469 8.897252400445065 3.4808193881330545 Q 8.940971869271303 3.4642032660246396 8.940971869271303 3.4132653179217947 Q 8.940971869271303 3.376491932927762 8.918771640552684 3.362054974374549 Q 8.896571411834064 3.3476180158213364 8.866063122061238 3.338901361600529 L 8.77671741629796 3.313568585271306 Q 8.727958631750315 3.302672767495297 8.695952167033287 3.274752234444272 Q 8.663945702316258 3.2468317013932473 8.663945702316258 3.192080217068799 Q 8.663945702316258 3.1324256147451464 8.7106615210309 3.0985123819173164 Q 8.757377339745542 3.0645991490894864 8.823024641845999 3.0645991490894864 Q 8.851353768063625 3.0645991490894864 8.88118106922545 3.0716814306438924 Q 8.911008370387277 3.078763712198299 8.930620842384094 3.095107438862313 Q 8.930620842384094 3.083666830197503 8.9378393216607 3.0742691873656947 Q 8.945057800937308 3.0648715445338865 8.956226014157718 3.0648715445338865 Q 8.964397877489723 3.0648715445338865 8.97066297271093 3.069774662533091 Q 8.976928067932135 3.074677780532295 8.978017649709736 3.0828496438643023 L 8.979924417820538 3.190990635291198 Q 8.979924417820538 3.2027036394004083 8.972842136266133 3.208015350566213 Q 8.965759854711726 3.2133270617320178 8.954864036935716 3.2133270617320178 Q 8.945330196381708 3.2133270617320178 8.939201298882702 3.209241130066014 Q 8.933072401383697 3.2051551984000106 8.931982819606096 3.1961661487348025 L 8.930893237828494 3.1645682771843746 Q 8.927352097051292 3.133787591967147 8.897116202722865 3.1207126106359357 Q 8.866880308394439 3.1076376293047243 8.832013691511207 3.1076376293047243 L 8.832013691511207 3.1076376293047243 M 9.179862674010316 3.21577862073162 Q 9.170873624345107 3.21577862073162 9.166106704068104 3.2097859209548147 Q 9.1613397837911 3.2037932211780094 9.1613397837911 3.193986985179601 L 9.165425715457102 3.092655879862711 Q 9.165698110901504 3.0820324575311018 9.169239251678706 3.076720746365297 Q 9.172780392455909 3.0714090351994923 9.182041837565517 3.0714090351994923 L 9.574836068390665 3.0714090351994923 Q 9.583552722611472 3.0714090351994923 9.587366258833075 3.076856944087497 Q 9.59117979505468 3.082304852975502 9.59145219049908 3.092655879862711 L 9.595538122165083 3.193986985179601 Q 9.595538122165083 3.2037932211780094 9.59077120188808 3.2097859209548147 Q 9.586004281611075 3.21577862073162 9.577015231945866 3.21577862073162 Q 9.567481391391858 3.21577862073162 9.561624889337253 3.2116926890656163 Q 9.555768387282647 3.2076067573996125 9.554678805505047 3.197528125956804 L 9.54623454672864 3.1193506334139345 L 9.407312870084517 3.1193506334139345 L 9.407312870084517 3.490353228687063 L 9.47949766285058 3.490353228687063 Q 9.48984868973779 3.490353228687063 9.494343214570394 3.4978441034080694 Q 9.498837739402997 3.505334978129076 9.498837739402997 3.5154136095718846 Q 9.498837739402997 3.5244026592370927 9.493662225959394 3.531348743069299 Q 9.488486712515789 3.538294826901505 9.47895287196178 3.538294826901505 L 9.272477125106398 3.538294826901505 Q 9.262943284552389 3.538294826901505 9.257631573386584 3.531348743069299 Q 9.25231986222078 3.5244026592370927 9.25231986222078 3.5154136095718846 Q 9.25231986222078 3.505334978129076 9.256950584775584 3.4978441034080694 Q 9.261581307330388 3.490353228687063 9.271932334217597 3.490353228687063 L 9.34384473153926 3.490353228687063 L 9.34384473153926 3.1193506334139345 L 9.210370963783143 3.1193506334139345 L 9.202199100451136 3.197528125956804 Q 9.201109518673535 3.207879152844013 9.19525301661893 3.211828886787816 Q 9.189396514564324 3.21577862073162 9.179862674010316 3.21577862073162 L 9.179862674010316 3.21577862073162 M 9.868342159731924 3.545104713011511 Q 9.76183554097143 3.545104713011511 9.69400907531577 3.4798660040776532 Q 9.62618260966011 3.414627295143796 9.62618260966011 3.3067586991613003 Q 9.62618260966011 3.198617707734405 9.69400907531577 3.1316084284119454 Q 9.76183554097143 3.0645991490894864 9.868342159731924 3.0645991490894864 Q 9.976210755714419 3.0645991490894864 10.04444581453668 3.1316084284119454 Q 10.11268087335894 3.198617707734405 10.11268087335894 3.3067586991613003 Q 10.11268087335894 3.414627295143796 10.04417341909228 3.4798660040776532 Q 9.97566596482562 3.545104713011511 9.868342159731924 3.545104713011511 L 9.868342159731924 3.545104713011511 M 9.865890600732323 3.1160818880811316 Q 9.78471675830105 3.1160818880811316 9.739499114530611 3.1701523837945795 Q 9.69428147076017 3.2242228795080274 9.69428147076017 3.3067586991613003 Q 9.69428147076017 3.389294518814573 9.74072489403041 3.4414582464172194 Q 9.787168317300653 3.4936219740198657 9.870521323287127 3.4936219740198657 Q 9.951967561162798 3.4936219740198657 9.998547182155239 3.44213923502822 Q 10.045126803147681 3.3906564960365744 10.045126803147681 3.307303490050101 Q 10.045126803147681 3.2231332977304263 9.99732140265544 3.169607592905779 Q 9.949516002163197 3.1160818880811316 9.865890600732323 3.1160818880811316 L 9.865890600732323 3.1160818880811316 M 10.741641954479098 3.0942902525291123 Q 10.741641954479098 3.1043688839719215 10.737011231924294 3.111859758692928 Q 10.73238050936949 3.1193506334139345 10.72202948248228 3.1193506334139345 L 10.684166515710647 3.1193506334139345 L 10.548785979843727 3.341352920600131 L 10.548785979843727 3.490353228687063 L 10.609530163944981 3.490353228687063 Q 10.61988119083219 3.490353228687063 10.624375715664794 3.4978441034080694 Q 10.628870240497399 3.505334978129076 10.628870240497399 3.5154136095718846 Q 10.628870240497399 3.5244026592370927 10.623694727053794 3.531348743069299 Q 10.618519213610188 3.538294826901505 10.60898537305618 3.538294826901505 L 10.413677839421208 3.538294826901505 Q 10.4041439988672 3.538294826901505 10.398832287701394 3.531348743069299 Q 10.39352057653559 3.5244026592370927 10.39352057653559 3.5154136095718846 Q 10.39352057653559 3.505334978129076 10.398151299090394 3.4978441034080694 Q 10.402782021645198 3.490353228687063 10.413133048532407 3.490353228687063 L 10.485045445854071 3.490353228687063 L 10.485045445854071 3.336994593489727 L 10.355657609763956 3.1193506334139345 L 10.298182170995506 3.1193506334139345 Q 10.287831144108296 3.1193506334139345 10.283200421553492 3.111859758692928 Q 10.278569698998687 3.1043688839719215 10.278569698998687 3.0942902525291123 Q 10.278569698998687 3.0853012028639046 10.283881410164494 3.0783551190316985 Q 10.289193121330298 3.0714090351994923 10.298726961884306 3.0714090351994923 L 10.460529855858049 3.0714090351994923 Q 10.470063696412058 3.0714090351994923 10.475375407577863 3.0783551190316985 Q 10.480687118743667 3.0853012028639046 10.480687118743667 3.0942902525291123 Q 10.480687118743667 3.1043688839719215 10.476056396188863 3.111859758692928 Q 10.471425673634059 3.1193506334139345 10.46107464674685 3.1193506334139345 L 10.422666889086416 3.1193506334139345 L 10.527539135180508 3.2955904859408904 L 10.631321799497 3.1193506334139345 L 10.587193737504162 3.1193506334139345 Q 10.576842710616951 3.1193506334139345 10.572211988062149 3.111859758692928 Q 10.567581265507345 3.1043688839719215 10.567581265507345 3.0942902525291123 Q 10.567581265507345 3.0853012028639046 10.572892976673149 3.0783551190316985 Q 10.578204687838953 3.0714090351994923 10.587738528392961 3.0714090351994923 L 10.72148469159348 3.0714090351994923 Q 10.731018532147488 3.0714090351994923 10.736330243313294 3.0783551190316985 Q 10.741641954479098 3.0853012028639046 10.741641954479098 3.0942902525291123 L 10.741641954479098 3.0942902525291123 M 11.021800669044746 3.545104713011511 Q 10.915294050284253 3.545104713011511 10.847467584628593 3.4798660040776532 Q 10.779641118972933 3.414627295143796 10.779641118972933 3.3067586991613003 Q 10.779641118972933 3.198617707734405 10.847467584628593 3.1316084284119454 Q 10.915294050284253 3.0645991490894864 11.021800669044746 3.0645991490894864 Q 11.12966926502724 3.0645991490894864 11.197904323849501 3.1316084284119454 Q 11.266139382671762 3.198617707734405 11.266139382671762 3.3067586991613003 Q 11.266139382671762 3.414627295143796 11.197631928405102 3.4798660040776532 Q 11.129124474138441 3.545104713011511 11.021800669044746 3.545104713011511 L 11.021800669044746 3.545104713011511 M 11.019349110045145 3.1160818880811316 Q 10.938175267613872 3.1160818880811316 10.892957623843433 3.1701523837945795 Q 10.847739980072992 3.2242228795080274 10.847739980072992 3.3067586991613003 Q 10.847739980072992 3.389294518814573 10.894183403343233 3.4414582464172194 Q 10.940626826613475 3.4936219740198657 11.023979832599949 3.4936219740198657 Q 11.10542607047562 3.4936219740198657 11.15200569146806 3.44213923502822 Q 11.198585312460501 3.3906564960365744 11.198585312460501 3.307303490050101 Q 11.198585312460501 3.2231332977304263 11.150779911968261 3.169607592905779 Q 11.102974511476019 3.1160818880811316 11.019349110045145 3.1160818880811316 L 11.019349110045145 3.1160818880811316 M 11.54466372457101 3.545104713011511 Q 11.462945091250937 3.545104713011511 11.410917561370491 3.499750871518871 Q 11.358890031490045 3.454397030026231 11.358890031490045 3.3737679784837598 L 11.358890031490045 3.1193506334139345 L 11.317758319385609 3.1193506334139345 Q 11.307407292498398 3.1193506334139345 11.302776569943594 3.111859758692928 Q 11.29814584738879 3.1043688839719215 11.29814584738879 3.0942902525291123 Q 11.29814584738879 3.0853012028639046 11.303457558554596 3.0783551190316985 Q 11.3087692697204 3.0714090351994923 11.318303110274408 3.0714090351994923 L 11.477382049804149 3.0714090351994923 Q 11.486915890358159 3.0714090351994923 11.492091403801762 3.0783551190316985 Q 11.497266917245367 3.0853012028639046 11.497266917245367 3.0942902525291123 Q 11.497266917245367 3.1043688839719215 11.492772392412762 3.111859758692928 Q 11.488277867580159 3.1193506334139345 11.47792684069295 3.1193506334139345 L 11.4226305654797 3.1193506334139345 L 11.4226305654797 3.3737679784837598 Q 11.4226305654797 3.4317882081410107 11.454364634752329 3.4640670683024393 Q 11.486098704024958 3.496345928463868 11.54466372457101 3.496345928463868 Q 11.598053231673456 3.496345928463868 11.630059696390484 3.462024102469438 Q 11.662066161107512 3.4277022764750074 11.662066161107512 3.37431276937256 L 11.662066161107512 3.1193506334139345 L 11.610038631227066 3.1193506334139345 Q 11.599687604339858 3.1193506334139345 11.595056881785053 3.111859758692928 Q 11.59042615923025 3.1043688839719215 11.59042615923025 3.0942902525291123 Q 11.59042615923025 3.0853012028639046 11.595737870396054 3.0783551190316985 Q 11.601049581561858 3.0714090351994923 11.610583422115868 3.0714090351994923 L 11.7612181028692 3.0714090351994923 Q 11.770751943423209 3.0714090351994923 11.776063654589013 3.0783551190316985 Q 11.781375365754819 3.0853012028639046 11.781375365754819 3.0942902525291123 Q 11.781375365754819 3.1043688839719215 11.776744643200015 3.111859758692928 Q 11.77211392064521 3.1193506334139345 11.761762893758 3.1193506334139345 L 11.714366086432358 3.1193506334139345 L 11.714366086432358 3.37431276937256 Q 11.714366086432358 3.450038702915827 11.667241674551118 3.4975717079636692 Q 11.620117262669876 3.545104713011511 11.54466372457101 3.545104713011511 L 11.54466372457101 3.545104713011511" fill="#fffcf7" fill-rule="nonzero"></path></g></g><defs><clipPath id="SvgjsClipPath57691"><path d=" M -9.857051575136417 -1.941847508438221 h 9.457051575136417 v 7.421989843777947 h -9.457051575136417 Z"></path></clipPath><clipPath id="SvgjsClipPath57689aa3a556f-28e9-4dac-a595-38a441d66809"><path d=" M -9.857051575136417 -1.9418475084382214 L -0.40000000000000036 -1.9418475084382214 L -0.40000000000000036 5.4801423353397265 L -9.857051575136417 5.4801423353397265 Z"></path></clipPath></defs></svg>